<?xml version="1.0" standalone="no"?>
<!DOCTYPE svg PUBLIC "-//W3C//DTD SVG 20010904//EN"
 "http://www.w3.org/TR/2001/REC-SVG-20010904/DTD/svg10.dtd">
<svg version="1.0" xmlns="http://www.w3.org/2000/svg"
 width="456.000000pt" height="456.000000pt" viewBox="0 0 456.000000 456.000000"
 preserveAspectRatio="xMidYMid meet">

<g transform="translate(0.000000,456.000000) scale(0.100000,-0.100000)"
fill="#000000" stroke="none">
<path d="M1605 3604 c-176 -169 -340 -326 -365 -350 -44 -42 -47 -43 -82 -33
-44 12 -32 -23 -118 346 -50 218 -58 266 -48 282 16 26 -6 53 -41 49 -32 -4
-42 -45 -16 -65 13 -9 38 -96 87 -309 l69 -297 -28 -28 -28 -28 -374 114
c-285 87 -377 120 -388 135 -28 40 -93 3 -67 -38 9 -12 23 -16 50 -15 26 2
161 -36 403 -110 l364 -112 11 -35 12 -35 -73 -76 c-44 -47 -73 -85 -73 -98 0
-12 19 -43 42 -69 53 -58 508 -535 554 -579 60 -58 75 -52 233 102 77 74 141
135 144 135 2 0 -14 -58 -36 -128 l-41 -128 -165 -63 c-91 -34 -180 -61 -198
-61 -46 0 -61 -8 -89 -49 l-24 -36 -93 0 c-70 0 -100 -4 -125 -18 -33 -18 -33
-18 -63 7 -61 52 -188 60 -283 17 l-48 -21 -20 25 -20 25 -44 -32 c-71 -51
-72 -51 -25 -113 23 -30 44 -61 46 -67 3 -7 -25 -35 -60 -62 -36 -27 -65 -55
-65 -62 0 -21 7 -18 80 36 37 28 70 50 73 50 4 0 38 -41 76 -92 l69 -92 -69
-54 c-38 -29 -69 -58 -69 -63 0 -19 27 -7 90 41 l65 50 30 -37 c76 -93 71 -89
96 -75 13 7 40 26 59 42 33 27 34 29 17 47 -22 26 -22 28 13 72 63 78 90 219
55 281 -8 14 -14 28 -15 31 0 13 80 39 118 39 61 0 82 -10 82 -36 0 -59 137
-123 177 -83 15 15 63 -23 164 -128 94 -99 165 -192 318 -418 67 -99 135 -196
151 -216 l30 -35 -54 -85 c-30 -46 -71 -104 -92 -128 -46 -51 -154 -193 -154
-202 0 -3 51 -52 114 -107 l115 -102 105 0 106 0 0 54 c0 59 -19 86 -90 130
-67 41 -53 89 59 200 l78 77 90 -46 c185 -93 367 -115 590 -69 l32 6 -2 -163
-2 -164 215 0 215 0 3 47 c4 59 -16 81 -95 104 -105 31 -144 97 -128 217 6 51
8 53 73 94 37 23 95 67 129 98 l62 56 21 -21 c55 -55 173 -68 271 -30 385 152
546 783 332 1295 -33 77 -101 183 -151 233 l-40 40 25 83 c64 224 29 486 -94
699 -52 89 -209 246 -300 300 -238 139 -511 179 -794 114 -159 -36 -349 -127
-439 -210 l-26 -24 -158 165 c-140 146 -161 165 -190 165 -28 0 -67 -34 -351
-306z m677 -40 c179 -186 294 -314 296 -328 3 -23 -25 -51 -750 -749 -205
-198 -252 -238 -273 -235 -30 4 -625 621 -625 648 0 10 187 196 428 426 235
225 443 425 463 444 114 110 129 121 148 110 11 -5 152 -148 313 -316z m970
226 c340 -75 592 -310 679 -635 32 -118 32 -319 0 -432 -13 -46 -25 -83 -27
-83 -3 0 -24 10 -47 22 -64 34 -167 32 -229 -4 -58 -34 -88 -82 -88 -137 0
-115 101 -162 219 -102 41 21 125 107 143 146 l11 26 35 -33 c114 -109 203
-321 231 -548 30 -234 -13 -485 -114 -666 -51 -91 -171 -211 -250 -250 -105
-51 -225 -45 -277 13 -16 17 -15 22 29 85 35 51 47 78 51 116 4 45 2 52 -22
67 -24 16 -28 16 -63 -2 -65 -31 -92 -126 -61 -214 11 -32 11 -34 -43 -82 -50
-45 -180 -139 -185 -134 -1 1 4 70 11 152 22 235 20 342 -10 430 -19 58 -153
336 -298 620 -8 17 -24 53 -36 80 -72 179 -105 232 -258 418 -36 43 -63 80
-61 82 1 1 37 15 78 29 98 35 152 68 170 102 19 34 16 161 -4 279 -11 62 -12
93 -4 123 21 84 -17 122 -121 122 -77 0 -99 -44 -65 -130 13 -33 15 -59 7
-157 l-8 -118 -55 -8 c-123 -17 -237 -37 -254 -43 -10 -4 48 57 128 136 121
118 146 148 146 172 0 23 -27 57 -137 174 -76 80 -138 150 -138 155 0 16 117
97 200 138 82 41 219 85 310 100 98 17 314 12 407 -9z m-466 -450 c24 -10 26
-14 21 -51 -7 -51 -11 -55 -68 -62 -43 -6 -47 -4 -58 20 -15 32 0 53 38 53 22
-1 24 -2 9 -11 -16 -9 -26 -39 -13 -39 17 0 56 26 60 41 11 33 -4 42 -61 36
-43 -4 -52 -3 -47 9 6 17 78 19 119 4z m-1631 -146 c14 -6 9 -14 -26 -50 -51
-52 -69 -56 -69 -14 0 51 47 82 95 64z m1652 -69 c7 -38 13 -109 15 -156 3
-75 0 -90 -17 -109 -25 -28 -90 -61 -179 -90 -65 -21 -70 -22 -97 -6 -54 32
-40 -4 27 -66 81 -76 225 -261 265 -340 17 -33 29 -73 29 -95 0 -32 -8 -44
-56 -91 -96 -93 -354 -198 -466 -190 -41 3 -42 4 -56 53 -38 135 -76 189 -185
263 -53 37 -82 34 -46 -4 l22 -23 -27 -7 c-14 -3 -26 -13 -26 -21 0 -11 7 -13
25 -9 30 8 31 -2 6 -52 -23 -45 -53 -73 -106 -100 -45 -22 -183 -58 -260 -67
-27 -3 -64 -8 -82 -11 -30 -4 -33 -2 -53 42 -11 26 -19 48 -17 50 4 5 268 104
276 104 3 0 14 -14 24 -32 12 -22 21 -28 28 -21 8 8 7 17 -1 33 -10 19 -9 21
11 18 35 -5 35 21 0 28 -23 5 -30 11 -27 23 3 9 12 43 22 76 9 33 29 94 45
136 l29 76 58 -2 c31 -1 69 -7 84 -13 96 -39 308 149 308 273 0 17 -9 45 -21
64 -11 18 -19 35 -17 37 6 5 166 32 241 39 62 7 70 6 92 -15 l24 -23 11 27
c11 31 6 46 -16 46 -16 0 -19 54 -8 158 7 66 13 71 79 68 29 -1 30 -3 42 -71z
m-486 -274 c35 -36 36 -60 5 -126 -36 -76 -136 -162 -208 -179 -40 -9 -34 5
15 36 72 45 132 107 119 120 -9 9 -23 0 -59 -33 -80 -74 -178 -121 -219 -105
-16 6 -16 8 -2 22 8 9 45 26 82 39 126 44 213 128 202 194 -5 34 6 61 26 61 5
0 23 -13 39 -29z m-91 -46 c0 -39 -78 -109 -157 -141 -34 -14 -28 -6 52 70 50
47 93 85 98 86 4 0 7 -7 7 -15z m1608 -170 l53 -24 -15 -28 c-48 -94 -162
-172 -232 -158 -77 14 -99 108 -41 171 60 65 148 80 235 39z m-1608 -562 c6
-32 21 -76 33 -98 17 -34 22 -65 28 -215 3 -96 14 -232 24 -302 l18 -128 -39
-46 c-22 -26 -62 -75 -91 -110 l-52 -64 -44 53 c-24 28 -92 125 -150 214 -133
202 -237 332 -360 451 -54 51 -97 101 -97 111 0 10 -9 26 -20 36 -13 11 -18
25 -14 37 9 30 -53 24 -87 -8 -42 -40 -52 -25 -19 29 29 45 32 47 75 47 25 0
48 0 52 1 4 0 15 -21 26 -48 14 -36 16 -52 8 -65 -15 -24 -14 -28 8 -28 10 0
21 6 24 14 4 9 26 17 54 21 108 14 220 37 292 60 91 29 136 70 177 159 l27 60
58 -61 c49 -53 59 -70 69 -120z m-1244 -62 c23 -10 54 -36 70 -57 26 -34 29
-45 29 -113 -1 -80 -17 -124 -67 -183 l-23 -27 -127 168 c-70 93 -129 174
-130 181 -4 19 89 49 152 49 33 0 72 -7 96 -18z m-8 -473 c-17 -15 -33 -27
-34 -25 -1 1 -79 103 -173 227 l-172 225 32 27 32 27 173 -227 174 -227 -32
-27z m467 428 c25 -21 28 -28 19 -43 -16 -26 -63 -27 -104 -1 -31 20 -33 23
-14 26 12 2 30 12 40 23 22 24 23 24 59 -5z m1434 -436 c48 -58 93 -113 101
-124 11 -14 14 -47 12 -150 -3 -116 8 -294 24 -382 l6 -31 -69 -14 c-101 -21
-271 -16 -368 10 -85 23 -226 88 -232 107 -2 7 34 52 80 101 167 180 186 212
268 460 62 189 43 187 178 23z m708 -222 c-3 -22 -22 -65 -43 -96 -32 -49 -38
-54 -45 -37 -22 58 -2 148 39 169 40 21 55 10 49 -36z m-1514 -508 c53 -40 57
-50 22 -50 -30 0 -34 -25 -5 -33 11 -3 20 -10 20 -15 0 -5 -9 -12 -20 -15 -28
-7 -25 -27 4 -27 29 0 44 -18 22 -26 -9 -3 -16 -12 -16 -20 0 -17 2 -17 35 -2
14 6 28 9 31 5 11 -10 -36 -67 -56 -67 -10 0 -41 21 -69 46 -50 45 -52 48 -46
88 4 29 1 51 -12 76 -18 34 -18 36 1 62 21 30 19 30 89 -22z m-113 -59 c6 -16
9 -39 5 -51 -7 -22 -7 -22 -35 5 -28 27 -28 28 -12 51 22 30 27 30 42 -5z
m1250 -6 c0 -8 -6 -15 -14 -15 -18 0 -29 -16 -21 -30 4 -7 12 -7 25 0 25 13
35 -3 18 -29 -16 -27 -3 -38 20 -18 23 21 34 12 26 -19 -7 -26 5 -31 23 -13
18 18 63 2 63 -21 0 -18 -7 -20 -87 -20 l-88 0 -29 36 c-16 20 -44 43 -63 51
-29 12 -34 18 -29 36 3 12 6 30 6 40 0 15 10 17 75 17 60 0 75 -3 75 -15z
m-1225 -130 l93 -85 81 0 c65 0 81 -3 81 -15 0 -12 -16 -15 -86 -15 l-86 0
-97 87 c-53 48 -98 88 -100 90 -4 3 9 23 16 23 3 0 47 -38 98 -85z m1128 -3
c27 -23 21 -32 -23 -32 -39 0 -40 1 -40 35 0 34 1 35 23 24 12 -6 30 -18 40
-27z m303 -17 c18 -14 18 -14 -8 -15 -18 0 -28 5 -28 15 0 19 11 19 36 0z
m-1191 -15 c18 -20 17 -20 -19 -20 -34 0 -36 2 -26 20 6 11 14 20 19 20 4 0
16 -9 26 -20z m1205 -45 c0 -13 -25 -15 -187 -13 -138 2 -187 6 -191 16 -3 9
39 12 187 12 164 0 191 -2 191 -15z"/>
<path d="M1905 3664 c-62 -32 -210 -158 -351 -298 -176 -176 -248 -267 -239
-304 17 -67 175 -259 292 -352 97 -78 134 -97 165 -83 139 63 598 519 598 594
0 61 -161 260 -302 373 -97 78 -125 90 -163 70z m70 -133 c-2 -5 -29 -21 -59
-35 -57 -28 -92 -65 -139 -148 -31 -53 -66 -82 -128 -103 -59 -21 -76 -39 -94
-100 -17 -60 -61 -105 -102 -105 -29 0 -27 23 3 28 32 6 61 41 73 87 14 57 51
99 98 113 62 19 100 48 129 99 49 86 83 121 146 152 55 28 86 33 73 12z m145
-156 c0 -8 -9 -15 -19 -15 -12 0 -31 -17 -48 -42 -24 -36 -38 -46 -88 -61
-138 -43 -158 -60 -189 -167 -24 -81 -34 -94 -105 -142 -36 -24 -70 -47 -77
-53 -7 -5 -16 -6 -20 -2 -11 11 25 45 88 84 46 28 60 44 72 77 8 22 22 63 31
89 25 70 59 98 156 128 74 23 87 30 110 64 34 49 89 74 89 40z m110 -135 c0
-21 -79 -88 -124 -105 -43 -17 -46 -20 -46 -55 0 -49 -27 -82 -85 -104 -36
-14 -53 -30 -83 -74 -27 -41 -52 -65 -90 -85 -28 -16 -52 -35 -52 -43 0 -8 -7
-14 -15 -14 -19 0 -20 34 -1 50 8 6 34 21 58 33 29 15 55 40 78 75 26 40 50
61 95 85 56 30 60 34 63 72 4 50 13 60 79 91 30 14 63 39 75 55 21 28 48 39
48 19z"/>
<path d="M1102 2957 c-38 -40 -28 -98 20 -123 79 -41 152 50 97 120 -27 35
-86 36 -117 3z m105 -33 c7 -18 -5 -64 -16 -64 -5 0 -11 12 -15 28 -3 15 -9
38 -12 51 -6 21 -5 22 15 11 12 -6 25 -18 28 -26z m-60 -26 c13 -50 12 -53
-16 -38 -28 14 -29 80 -1 80 3 0 11 -19 17 -42z"/>
<path d="M1274 2830 c-12 -5 -29 -19 -38 -32 -53 -76 51 -162 119 -98 60 56
-6 160 -81 130z m62 -37 c17 -17 17 -18 -9 -21 -15 -2 -39 -2 -54 0 -26 3 -26
4 -9 21 10 9 26 17 36 17 10 0 26 -8 36 -17z m14 -53 c0 -5 -11 -17 -25 -26
-23 -15 -27 -15 -52 2 l-28 19 50 6 c28 3 51 7 53 7 1 1 2 -2 2 -8z"/>
<path d="M1402 2647 c-48 -48 -64 -77 -44 -77 10 0 122 113 122 123 0 20 -31
2 -78 -46z"/>
<path d="M1436 2601 c-39 -39 -54 -61 -46 -66 12 -7 130 100 130 117 0 21 -31
2 -84 -51z"/>
<path d="M1476 2561 c-39 -39 -54 -61 -46 -66 12 -7 130 100 130 117 0 21 -31
2 -84 -51z"/>
<path d="M1517 2522 c-59 -59 -66 -72 -44 -72 13 0 127 110 127 123 0 20 -32
1 -83 -51z"/>
<path d="M1557 2482 c-56 -57 -66 -72 -48 -72 13 0 131 110 131 121 0 22 -30
4 -83 -49z"/>
<path d="M1598 2446 c-52 -48 -71 -76 -50 -76 14 0 122 102 122 116 0 23 -12
16 -72 -40z"/>
<path d="M2517 2340 c-108 -70 -108 -71 -101 -103 4 -17 8 -56 9 -85 2 -29 8
-66 15 -83 11 -27 17 -30 41 -25 83 16 246 116 289 176 32 45 15 83 -64 143
-34 26 -67 47 -72 47 -5 0 -58 -32 -117 -70z m184 -14 c26 -20 49 -46 52 -57
10 -39 -105 -129 -230 -178 -61 -24 -62 -23 -69 83 -2 38 -7 72 -9 75 -10 9
189 130 200 122 5 -4 31 -24 56 -45z"/>
</g>
</svg>
